<svg xmlns="http://www.w3.org/2000/svg" width="80" height="79" fill="none" viewBox="0 0 80 79"><path fill="#fff" d="M40 0C17.9107 0 0 17.6868 0 39.5C0 61.3132 17.9107 79 40 79C62.0893 79 80 61.3132 80 39.5C80 17.6868 62.0893 0 40 0ZM59.2232 29.7749C59.25 30.1893 59.25 30.6213 59.25 31.0445C59.25 43.9878 49.2679 58.8973 31.0268 58.8973C25.4018 58.8973 20.1875 57.2838 15.7946 54.5065C16.5982 54.5946 17.3661 54.6299 18.1875 54.6299C22.8304 54.6299 27.0982 53.0781 30.5 50.4507C26.1429 50.3625 22.4821 47.5411 21.2321 43.6616C22.7589 43.882 24.1339 43.882 25.7054 43.4853C23.4618 43.0352 21.4453 41.8319 19.9984 40.08C18.5514 38.3281 17.7633 36.1355 17.7679 33.8748V33.7513C19.0804 34.4831 20.625 34.9328 22.2411 34.9945C20.8825 34.1004 19.7684 32.8891 18.9974 31.468C18.2265 30.0469 17.8225 28.4599 17.8214 26.8477C17.8214 25.0225 18.3036 23.3561 19.1696 21.9102C21.6598 24.9373 24.7672 27.4132 28.2899 29.1768C31.8125 30.9404 35.6715 31.9523 39.6161 32.1467C38.2143 25.4898 43.25 20.1027 49.3036 20.1027C52.1607 20.1027 54.7321 21.2842 56.5446 23.1886C58.7857 22.7742 60.9286 21.9454 62.8393 20.8345C62.0982 23.1004 60.5446 25.0137 58.4821 26.2217C60.4821 26.01 62.4107 25.4634 64.1964 24.6963C62.8482 26.6537 61.1607 28.3906 59.2232 29.7749Z"/></svg>