<svg xmlns="http://www.w3.org/2000/svg" width="71" height="71" fill="none" viewBox="0 0 71 71"><path fill="#fff" d="M35.4905 23.6616C28.9719 23.6616 23.6523 28.9813 23.6523 35.5C23.6523 42.0187 28.9719 47.3384 35.4905 47.3384C42.009 47.3384 47.3286 42.0187 47.3286 35.5C47.3286 28.9813 42.009 23.6616 35.4905 23.6616ZM70.996 35.5C70.996 30.5977 71.0404 25.7398 70.7651 20.8463C70.4898 15.1625 69.1932 10.1181 65.037 5.96179C60.8719 1.7966 55.8365 0.508859 50.1527 0.233547C45.2505 -0.0417635 40.3927 0.0026416 35.4993 0.0026416C30.5971 0.0026416 25.7393 -0.0417635 20.846 0.233547C15.1622 0.508859 10.1179 1.80548 5.96168 5.96179C1.79657 10.127 0.508849 15.1625 0.233543 20.8463C-0.0417628 25.7487 0.00264155 30.6066 0.00264155 35.5C0.00264155 40.3934 -0.0417628 45.2602 0.233543 50.1537C0.508849 55.8375 1.80545 60.8819 5.96168 65.0382C10.1268 69.2034 15.1622 70.4911 20.846 70.7664C25.7482 71.0418 30.606 70.9974 35.4993 70.9974C40.4016 70.9974 45.2594 71.0418 50.1527 70.7664C55.8365 70.4911 60.8808 69.1945 65.037 65.0382C69.2021 60.873 70.4898 55.8375 70.7651 50.1537C71.0493 45.2602 70.996 40.4023 70.996 35.5ZM35.4905 53.7149C25.4107 53.7149 17.2759 45.5799 17.2759 35.5C17.2759 25.4201 25.4107 17.2851 35.4905 17.2851C45.5702 17.2851 53.7051 25.4201 53.7051 35.5C53.7051 45.5799 45.5702 53.7149 35.4905 53.7149ZM54.451 20.7931C52.0976 20.7931 50.1971 18.8925 50.1971 16.5391C50.1971 14.1856 52.0976 12.2851 54.451 12.2851C56.8045 12.2851 58.705 14.1856 58.705 16.5391C58.7057 17.0979 58.5961 17.6514 58.3826 18.1678C58.169 18.6843 57.8557 19.1535 57.4606 19.5487C57.0654 19.9438 56.5962 20.2571 56.0798 20.4707C55.5634 20.6842 55.0099 20.7938 54.451 20.7931Z"/></svg>