<svg xmlns="http://www.w3.org/2000/svg" width="79" height="79" fill="none" viewBox="0 0 79 79"><path fill="#fff" d="M67.1676 11.4797C59.779 4.07344 49.9393 0 39.4824 0C17.8984 0 0.335045 17.5634 0.335045 39.1473C0.335045 46.0422 2.13371 52.7783 5.55469 58.721L0 79L20.7551 73.5511C26.4685 76.6723 32.9049 78.3123 39.4647 78.3123H39.4824C61.0487 78.3123 79 60.7489 79 39.165C79 28.708 74.5563 18.8859 67.1676 11.4797ZM39.4824 71.7172C33.6279 71.7172 27.8969 70.1478 22.9065 67.1853L21.725 66.4799L9.41652 69.7069L12.6964 57.6982L11.9205 56.4638C8.65826 51.2795 6.94777 45.3016 6.94777 39.1473C6.94777 21.2136 21.5487 6.61272 39.5 6.61272C48.1935 6.61272 56.358 9.99844 62.4946 16.1527C68.6312 22.3069 72.4049 30.4714 72.3873 39.165C72.3873 57.1163 57.4161 71.7172 39.4824 71.7172ZM57.3279 47.3471C56.358 46.8533 51.544 44.4904 50.6446 44.173C49.7453 43.8379 49.0929 43.6792 48.4404 44.6667C47.7879 45.6542 45.9188 47.8408 45.3368 48.5109C44.7725 49.1634 44.1906 49.2516 43.2208 48.7578C37.4721 45.8835 33.6984 43.6263 29.9071 37.1194C28.902 35.3913 30.9123 35.5147 32.7815 31.7763C33.0989 31.1239 32.9402 30.5596 32.6933 30.0658C32.4464 29.5721 30.4891 24.758 29.6779 22.8007C28.8844 20.8962 28.0732 21.1607 27.4737 21.1254C26.9094 21.0902 26.2569 21.0902 25.6045 21.0902C24.952 21.0902 23.894 21.3371 22.9946 22.3069C22.0953 23.2944 19.5737 25.6574 19.5737 30.4714C19.5737 35.2855 23.0828 39.9408 23.5589 40.5933C24.0527 41.2458 30.4538 51.1208 40.2759 55.3705C46.483 58.0509 48.9165 58.2801 52.0201 57.8217C53.9069 57.5395 57.804 55.4587 58.6152 53.1663C59.4263 50.8739 59.4263 48.9165 59.1795 48.5109C58.9502 48.0701 58.2978 47.8232 57.3279 47.3471Z"/></svg>