<svg xmlns="http://www.w3.org/2000/svg" width="71" height="71" fill="none" viewBox="0 0 71 71"><path fill="#fff" d="M68.16 0H2.84C1.26912 0 0 1.26912 0 2.84V68.16C0 69.7309 1.26912 71 2.84 71H68.16C69.7309 71 71 69.7309 71 68.16V2.84C71 1.26912 69.7309 0 68.16 0ZM59.9595 20.7231H54.2884C49.842 20.7231 48.9811 22.8354 48.9811 25.9416V32.7842H59.5956L58.2111 43.4964H48.9811V71H37.914V43.5052H28.6574V32.7842H37.914V24.8855C37.914 15.7176 43.5141 10.721 51.6969 10.721C55.6196 10.721 58.9832 11.0139 59.9684 11.147V20.7231H59.9595Z"/></svg>